<?xml version="1.0" encoding="UTF-8" standalone="no"?>
<!DOCTYPE svg PUBLIC "-//W3C//DTD SVG 20010904//EN"
              "http://www.w3.org/TR/2001/REC-SVG-20010904/DTD/svg10.dtd">

<svg xmlns="http://www.w3.org/2000/svg"
     width="15.4167in" height="15.4167in"
     viewBox="0 0 1110 1110">
  <path id="core-shape"
        fill="#00939b" stroke="none" stroke-width="0"
        d="M 795.00,240.00
           C 795.00,240.00 630.00,405.00 630.00,405.00
             630.00,405.00 585.00,360.00 585.00,360.00
             585.00,360.00 705.00,240.00 705.00,240.00
             705.00,240.00 555.00,90.00 555.00,90.00
             555.00,90.00 405.00,240.00 405.00,240.00
             405.00,240.00 645.00,480.00 645.00,480.00
             645.00,480.00 600.00,525.00 600.00,525.00
             600.00,525.00 552.15,478.39 552.15,478.39
             552.15,478.39 480.00,555.00 480.00,555.00
             480.00,555.00 795.00,870.00 795.00,870.00
             795.00,870.00 555.00,1110.00 555.00,1110.00
             555.00,1110.00 315.00,870.00 315.00,870.00
             315.00,870.00 510.00,675.00 510.00,675.00
             510.00,675.00 435.00,600.00 435.00,600.00
             435.00,600.00 240.00,795.00 240.00,795.00
             240.00,795.00 0.00,555.00 0.00,555.00
             0.00,555.00 240.00,315.00 240.00,315.00
             240.00,315.00 405.00,480.00 405.00,480.00
             405.00,480.00 360.00,525.00 360.00,525.00
             360.00,525.00 240.00,405.00 240.00,405.00
             240.00,405.00 90.00,555.00 90.00,555.00
             90.00,555.00 240.00,705.00 240.00,705.00
             240.00,705.00 510.00,435.00 510.00,435.00
             510.00,435.00 315.00,240.00 315.00,240.00
             315.00,240.00 555.00,0.00 555.00,0.00
             555.00,0.00 795.00,240.00 795.00,240.00 Z
           M 405.00,870.00
           C 405.00,870.00 555.00,1020.00 555.00,1020.00
             555.00,1020.00 705.00,870.00 705.00,870.00
             705.00,870.00 555.00,720.00 555.00,720.00
             555.00,720.00 405.00,870.00 405.00,870.00 Z" />
  <path id="dot shape"
        fill="#ffa500" stroke="none" stroke-width="0"
        d="M 150.00,555.00
           C 150.00,555.00 240.00,465.00 240.00,465.00
             240.00,465.00 330.00,555.00 330.00,555.00
             330.00,555.00 240.00,645.00 240.00,645.00
             240.00,645.00 150.00,555.00 150.00,555.00 Z" />
  <path id="side-shape-up-right"
        fill="#00939b" stroke="none" stroke-width="0"
        d="M 870.00,315.00
           C 870.00,315.00 1110.00,555.00 1110.00,555.00
             1110.00,555.00 1020.00,555.00 1020.00,555.00
             1020.00,555.00 870.00,405.00 870.00,405.00
             870.00,405.00 870.00,315.00 870.00,315.00 Z" />
  <path id="side-shape-up-left"
        fill="#00939b" stroke="none" stroke-width="0"
        d="M 630.00,555.00
           C 630.00,555.00 720.00,555.00 720.00,555.00
             720.00,555.00 870.00,405.00 870.00,405.00
             870.00,405.00 870.00,315.00 870.00,315.00
             870.00,315.00 630.00,555.00 630.00,555.00 Z" />
  <path id="side-shape-down-right"
        fill="#00939b" stroke="none" stroke-width="0"
        d="M 1110.00,555.00
           C 1110.00,555.00 1020.00,555.00 1020.00,555.00
             1020.00,555.00 870.00,705.00 870.00,705.00
             870.00,705.00 870.00,795.00 870.00,795.00
             870.00,795.00 1110.00,555.00 1110.00,555.00 Z" />
  <path id="side-shape-down-left"
        fill="#00939b" stroke="none" stroke-width="0"
        d="M 870.00,705.00
           C 870.00,705.00 870.00,795.00 870.00,795.00
             870.00,795.00 675.00,600.00 675.00,600.00
             675.00,600.00 630.00,645.00 630.00,645.00
             630.00,645.00 585.00,600.00 585.00,600.00
             585.00,600.00 630.00,555.00 630.00,555.00
             630.00,555.00 720.00,555.00 720.00,555.00
             720.00,555.00 870.00,705.00 870.00,705.00 Z" />
</svg>
