<?xml version="1.0" standalone="no"?>
<!DOCTYPE svg PUBLIC "-//W3C//DTD SVG 20010904//EN"
 "http://www.w3.org/TR/2001/REC-SVG-20010904/DTD/svg10.dtd">
<svg version="1.0" xmlns="http://www.w3.org/2000/svg"
 width="700.000000pt" height="700.000000pt" viewBox="0 0 700.000000 700.000000"
 preserveAspectRatio="xMidYMid meet">
<metadata>
Created by potrace 1.11, written by Peter Selinger 2001-2013
</metadata>
<g transform="translate(0.000000,700.000000) scale(0.100000,-0.100000)"
fill="#000000" stroke="none">
<path d="M2740 6245 l-755 -755 615 -615 615 -615 -853 -853 -852 -852 -472
473 -473 472 472 472 473 473 380 -380 380 -380 142 143 143 142 -523 523
-522 522 -757 -758 -758 -757 757 -757 758 -758 615 615 615 615 237 -238 238
-237 -615 -615 -615 -615 758 -758 757 -757 757 758 758 757 -995 995 -995
995 238 237 237 238 142 -142 143 -143 142 142 143 143 -757 757 -758 758 473
472 472 473 472 -472 473 -473 -380 -380 -380 -380 143 -142 142 -143 522 523
523 522 -755 755 c-415 415 -757 755 -760 755 -3 0 -345 -340 -760 -755z
m1235 -4265 l470 -470 -473 -473 -472 -472 -472 472 -473 473 470 470 c258
258 472 470 475 470 3 0 217 -212 475 -470z"/>
<path d="M4582 4112 l-893 -896 143 -143 143 -143 143 142 144 143 608 -612
c334 -337 611 -613 616 -613 5 0 349 340 764 755 l755 755 -755 755 c-415 415
-759 755 -765 754 -5 0 -412 -404 -903 -897z m1383 -142 l470 -470 -473 -473
-472 -472 -472 472 -473 473 470 470 c258 258 472 470 475 470 3 0 217 -212
475 -470z"/>
<path d="M1225 3780 l-280 -280 283 -283 282 -282 282 282 283 283 -280 280
c-154 154 -282 280 -285 280 -3 0 -131 -126 -285 -280z"/>
</g>
</svg>
